<svg width="32" height="33" viewBox="0 0 32 33" fill="none" xmlns="http://www.w3.org/2000/svg">
<path d="M20.4158 15.2526C20.193 15.2517 19.9725 15.297 19.7683 15.3858C19.5642 15.4745 19.381 15.6046 19.2303 15.7679C19.0797 15.9311 18.965 16.1238 18.8937 16.3336C18.8223 16.5434 18.7958 16.7658 18.8158 16.9864H22.1118C22.1331 16.7575 22.1042 16.5268 22.0272 16.31C21.9502 16.0933 21.8268 15.8958 21.6657 15.731C21.5045 15.5662 21.3093 15.4381 21.0935 15.3555C20.8777 15.2729 20.6465 15.2378 20.4158 15.2526Z" fill="#C0CEAA"/>
<path d="M11.9841 17.0156H10.0161V20.0972H11.6161C13.2161 20.0972 13.9201 19.573 13.9201 18.5088C13.9201 17.4445 13.1841 17.0156 11.9841 17.0156Z" fill="#C0CEAA"/>
<path d="M13.3761 14.1883C13.3761 13.3464 12.8161 12.8381 11.8561 12.8381H10.0161V15.6021H11.3761C12.8001 15.6021 13.3761 15.0938 13.3761 14.1883Z" fill="#C0CEAA"/>
<path d="M16 0.654541C12.8355 0.654541 9.74207 1.58616 7.11088 3.33158C4.4797 5.077 2.42894 7.55784 1.21793 10.4604C0.00693254 13.3629 -0.309921 16.5568 0.307443 19.6381C0.924806 22.7194 2.44866 25.5498 4.6863 27.7713C6.92394 29.9928 9.77486 31.5056 12.8786 32.1185C15.9823 32.7315 19.1993 32.4169 22.1229 31.2146C25.0466 30.0124 27.5454 27.9764 29.3035 25.3642C31.0616 22.752 32 19.6808 32 16.5392C32 14.4532 31.5861 12.3876 30.7821 10.4604C29.978 8.53316 28.7994 6.78206 27.3137 5.30704C25.828 3.83201 24.0641 2.66196 22.1229 1.86369C20.1817 1.06541 18.1012 0.654541 16 0.654541ZM12.32 21.6222H8V11.2972H12.32C14.192 11.2972 15.424 12.2662 15.424 13.8388C15.4461 14.3671 15.2778 14.8859 14.9494 15.3022C14.621 15.7185 14.1539 16.005 13.632 16.1103C13.9628 16.1179 14.2885 16.1924 14.5893 16.3293C14.89 16.4662 15.1595 16.6626 15.3811 16.9065C15.6028 17.1503 15.772 17.4365 15.8784 17.7476C15.9848 18.0586 16.0262 18.3879 16 18.7153C16 20.558 14.4 21.6222 12.32 21.6222ZM18 12.0915H22.8V12.8857H18V12.0915ZM24 18.207H18.72V18.4294C18.6925 18.6708 18.7174 18.9152 18.7931 19.1462C18.8688 19.3772 18.9934 19.5895 19.1587 19.7686C19.324 19.9477 19.526 20.0896 19.7512 20.1847C19.9763 20.2797 20.2194 20.3258 20.464 20.3197C20.8074 20.3727 21.1586 20.3005 21.4527 20.1166C21.7467 19.9327 21.9639 19.6494 22.064 19.319H24C23.8276 20.0815 23.3782 20.7541 22.7376 21.2083C22.0971 21.6626 21.3104 21.8665 20.528 21.7811C20.0279 21.8312 19.5229 21.7719 19.0483 21.6075C18.5738 21.443 18.1414 21.1772 17.7814 20.829C17.4215 20.4807 17.1428 20.0583 16.9649 19.5916C16.7871 19.1249 16.7144 18.6252 16.752 18.1276V17.4287C16.718 16.9465 16.7895 16.4628 16.9615 16.0106C17.1335 15.5585 17.4019 15.1486 17.7484 14.8091C18.095 14.4696 18.5113 14.2086 18.969 14.0438C19.4267 13.8791 19.9148 13.8145 20.4 13.8547C20.8836 13.8239 21.3681 13.8963 21.8211 14.0671C22.2741 14.2379 22.685 14.503 23.0261 14.8446C23.3672 15.1863 23.6306 15.5965 23.7986 16.0478C23.9666 16.499 24.0353 16.9807 24 17.4605V18.207Z" fill="#C0CEAA"/>
</svg>
