<svg width="40" height="40" viewBox="0 0 40 40" fill="none" xmlns="http://www.w3.org/2000/svg">
<path d="M2.5 12.4099H16.25" stroke="#C0CEAA" stroke-linecap="round" stroke-linejoin="round"/>
<path d="M23.75 12.4099H37.5" stroke="#C0CEAA" stroke-linecap="round" stroke-linejoin="round"/>
<path d="M20 16.1329C22.0711 16.1329 23.75 14.466 23.75 12.4099C23.75 10.3538 22.0711 8.68695 20 8.68695C17.9289 8.68695 16.25 10.3538 16.25 12.4099C16.25 14.466 17.9289 16.1329 20 16.1329Z" stroke="#C0CEAA" stroke-linecap="round" stroke-linejoin="round"/>
<path d="M6.25 31.0247C8.32107 31.0247 10 29.3579 10 27.3018C10 25.2456 8.32107 23.5788 6.25 23.5788C4.17893 23.5788 2.5 25.2456 2.5 27.3018C2.5 29.3579 4.17893 31.0247 6.25 31.0247Z" stroke="#C0CEAA" stroke-linecap="round" stroke-linejoin="round"/>
<path d="M33.75 31.0247C35.8211 31.0247 37.5 29.3579 37.5 27.3018C37.5 25.2456 35.8211 23.5788 33.75 23.5788C31.6789 23.5788 30 25.2456 30 27.3018C30 29.3579 31.6789 31.0247 33.75 31.0247Z" stroke="#C0CEAA" stroke-linecap="round" stroke-linejoin="round"/>
<path d="M23.7188 12.9219C26.1934 13.6116 28.4241 14.9754 30.1583 16.8588C31.8925 18.7423 33.0609 21.0701 33.5312 23.5788" stroke="#C0CEAA" stroke-linecap="round" stroke-linejoin="round"/>
<path d="M6.46875 23.5788C6.93908 21.0701 8.10749 18.7423 9.84169 16.8588C11.5759 14.9754 13.8066 13.6116 16.2812 12.9219" stroke="#C0CEAA" stroke-linecap="round" stroke-linejoin="round"/>
</svg>
