<svg width="64" height="65" viewBox="0 0 64 65" fill="none" xmlns="http://www.w3.org/2000/svg">
<path d="M4 20.6851H26" stroke="#FD8086" stroke-linecap="round" stroke-linejoin="round"/>
<path d="M38 20.6851H60" stroke="#FD8086" stroke-linecap="round" stroke-linejoin="round"/>
<path d="M32 26.6419C35.3137 26.6419 38 23.9749 38 20.6851C38 17.3953 35.3137 14.7284 32 14.7284C28.6863 14.7284 26 17.3953 26 20.6851C26 23.9749 28.6863 26.6419 32 26.6419Z" stroke="#FD8086" stroke-linecap="round" stroke-linejoin="round"/>
<path d="M10 50.4688C13.3137 50.4688 16 47.8018 16 44.512C16 41.2222 13.3137 38.5553 10 38.5553C6.68629 38.5553 4 41.2222 4 44.512C4 47.8018 6.68629 50.4688 10 50.4688Z" stroke="#FD8086" stroke-linecap="round" stroke-linejoin="round"/>
<path d="M54 50.4688C57.3137 50.4688 60 47.8018 60 44.512C60 41.2222 57.3137 38.5553 54 38.5553C50.6863 38.5553 48 41.2222 48 44.512C48 47.8018 50.6863 50.4688 54 50.4688Z" stroke="#FD8086" stroke-linecap="round" stroke-linejoin="round"/>
<path d="M37.95 21.5042C41.9094 22.6077 45.4785 24.7898 48.2533 27.8033C51.028 30.8168 52.8974 34.5414 53.65 38.5553" stroke="#FD8086" stroke-linecap="round" stroke-linejoin="round"/>
<path d="M10.3501 38.5553C11.1026 34.5414 12.9721 30.8168 15.7468 27.8033C18.5215 24.7898 22.0907 22.6077 26.0501 21.5042" stroke="#FD8086" stroke-linecap="round" stroke-linejoin="round"/>
</svg>
