<svg width="37" height="36" viewBox="0 0 37 36" fill="none" xmlns="http://www.w3.org/2000/svg">
<g clip-path="url(#clip0_6_812)">
<path fill-rule="evenodd" clip-rule="evenodd" d="M12.8883 0.0905762C9.59375 0.0905762 6.91992 2.76441 6.91992 6.05895C6.91992 9.35349 9.59375 12.0273 12.8883 12.0273C9.59375 12.0273 6.91992 14.7011 6.91992 17.9957C6.91992 21.2902 9.59375 23.9641 12.8883 23.9641C9.59375 23.9641 6.91992 26.6379 6.91992 29.9324C6.91992 33.227 9.59375 35.9008 12.8883 35.9008C16.1828 35.9008 18.8567 33.227 18.8567 29.9324L18.8567 17.9957C18.8567 21.2902 21.5305 23.9641 24.825 23.9641C28.1196 23.9641 30.7934 21.2902 30.7934 17.9957C30.7934 14.7011 28.1196 12.0273 24.825 12.0273C28.1196 12.0273 30.7934 9.35349 30.7934 6.05895C30.7934 2.76441 28.1196 0.0905762 24.825 0.0905762H12.8883ZM24.825 12.0273H18.8567L18.8567 17.9957C18.8567 14.7011 21.5305 12.0273 24.825 12.0273Z" fill="#EB5874"/>
</g>
<defs>
<clipPath id="clip0_6_812">
<rect width="35.8102" height="35.8102" fill="white" transform="translate(0.905029 0.0905762)"/>
</clipPath>
</defs>
</svg>
