<svg width="34" height="32" viewBox="0 0 34 32" fill="none" xmlns="http://www.w3.org/2000/svg">
<path fill-rule="evenodd" clip-rule="evenodd" d="M16.7382 0C7.6746 0 0.333496 7.28816 0.333496 16.2864C0.333496 23.4931 5.02934 29.5802 11.5502 31.7381C12.3704 31.8806 12.678 31.392 12.678 30.9645C12.678 30.5777 12.6575 29.2952 12.6575 27.9312C8.53585 28.6844 7.46954 26.9336 7.14145 26.0175C6.95689 25.5493 6.15717 24.1039 5.45997 23.7171C4.8858 23.4117 4.06557 22.6585 5.43946 22.6381C6.73133 22.6177 7.65409 23.8189 7.96168 24.3074C9.43811 26.7708 11.7963 26.0786 12.7396 25.6511C12.8831 24.5925 13.3137 23.8799 13.7854 23.4728C10.1353 23.0656 6.32121 21.6609 6.32121 15.4314C6.32121 13.6602 6.95689 12.1944 8.00269 11.0544C7.83865 10.6472 7.26448 8.97788 8.16674 6.7385C8.16674 6.7385 9.54063 6.31098 12.678 8.40785C13.9904 8.04141 15.3848 7.85819 16.7792 7.85819C18.1736 7.85819 19.568 8.04141 20.8804 8.40785C24.0178 6.29062 25.3917 6.7385 25.3917 6.7385C26.2939 8.97788 25.7198 10.6472 25.5557 11.0544C26.6015 12.1944 27.2372 13.6399 27.2372 15.4314C27.2372 21.6813 23.4026 23.0656 19.7526 23.4728C20.3472 23.9817 20.8599 24.9589 20.8599 26.4858C20.8599 28.6641 20.8394 30.4149 20.8394 30.9645C20.8394 31.392 21.147 31.901 21.9672 31.7381C28.4471 29.5802 33.1429 23.4728 33.1429 16.2864C33.1429 7.28816 25.8018 0 16.7382 0Z" fill="#C0CEAA"/>
</svg>
