<svg width="32" height="33" viewBox="0 0 32 33" fill="none" xmlns="http://www.w3.org/2000/svg">
<g clip-path="url(#clip0_6_841)">
<path d="M15.9999 0.246094C24.837 0.246094 32 7.41009 32 16.2461C32 25.0822 24.837 32.2461 15.9999 32.2461C7.1629 32.2461 0 25.0821 0 16.2461C0 7.4102 7.16301 0.246094 15.9999 0.246094Z" fill="#C0CEAA"/>
<path d="M9.01604 22.23H12.0121V12.244H9.01604V22.23ZM20.6881 11.8981C19.2341 11.8981 17.9331 12.4291 17.0101 13.6012V12.2112H14.0031V22.2302H17.0101V16.8122C17.0101 15.6671 18.0592 14.5501 19.3731 14.5501C20.6871 14.5501 21.0111 15.6671 21.0111 16.7841V22.2292H24.0072V16.5612C24.0071 12.6241 22.1431 11.8981 20.6881 11.8981ZM10.5 11.2461C11.3281 11.2461 12.0001 10.574 12.0001 9.74603C12.0001 8.91802 11.3281 8.24609 10.5 8.24609C9.67203 8.24609 9 8.91813 9 9.74614C9 10.5742 9.67203 11.2461 10.5 11.2461Z" fill="#090E16"/>
</g>
<defs>
<clipPath id="clip0_6_841">
<rect width="32" height="32" fill="white" transform="translate(0 0.246094)"/>
</clipPath>
</defs>
</svg>
